# xmcd
#
# Track frame offsets:
#	150
#	15947
#	35467
#	51870
#	72942
#
# Disc length: 1252 seconds
#
# Revision: 1
# Processed by: cddbd v1.5.1PL2 Copyright (c) Steve Scherf et al.
# Submitted via: audiograbber 1.83.01
#
DISCID=3604e205
DTITLE=Jason Hóman - Crazy In Love
DYEAR=2000
DGENRE=Dance
TTITLE0=Crazy In Love (Radio Edit)
TTITLE1=Don't Wanna Lose U
TTITLE2=Crazy In Love (Alternative Radio Edit)
TTITLE3=Crazy In Love (Extended Vocoder Version)
TTITLE4=Crazy In Love (Instrumental Version)
EXTD=
EXTT0=
EXTT1=
EXTT2=
EXTT3=
EXTT4=
PLAYORDER=
